# xmcd
#
# Track frame offsets:
#	150
#	15837
#	31137
#	44900
#	58507
#	72220
#	86782
#	99354
#	118042
#	131697
#	143727
#	155835
#	170262
#	182620
#	195290
#
# Disc length: 2850 seconds
#
# Revision: 0
# Processed by: cddbd v1.5.1PL0 Copyright (c) Steve Scherf et al.
# Submitted via: dBpowerAMP V4.0
#
DISCID=c40b200f
DTITLE=Zé Fortuna e Pitangueira - Som da Terra
DYEAR=1900
DGENRE=Sertanejo
TTITLE0=LEMBRANÇA
TTITLE1=CAVALO BRANCO
TTITLE2=O PUNHAL DA VINGANÇA
TTITLE3=O SELO DE SANGUE
TTITLE4=LENDA DA VALSA DOS NOIVOS 
TTITLE5=A ÚLTIMA VALSA
TTITLE6=ÚLTIMO ADEUS
TTITLE7=ESTEIO DE AROEIRA
TTITLE8=A PALAVRA LADRÃO
TTITLE9=OCEANO DA VIDA
TTITLE10=FLOR DO BAILE
TTITLE11=RETALHOS DE AMOR
TTITLE12=ABISMO CRUEL
TTITLE13=CRIME DE AMOR
TTITLE14=O CANDIDATO E O CAIPIRA
EXTD=Edição limitada, chantecler
EXTT0=
EXTT1=
EXTT2=
EXTT3=
EXTT4=
EXTT5=
EXTT6=
EXTT7=
EXTT8=
EXTT9=
EXTT10=
EXTT11=
EXTT12=
EXTT13=
EXTT14=
PLAYORDER=
